<?xml version="1.0" encoding="utf-8" standalone="no"?>
<!DOCTYPE svg PUBLIC "-//W3C//DTD SVG 1.1//EN"
  "http://www.w3.org/Graphics/SVG/1.1/DTD/svg11.dtd">
<svg xmlns:xlink="http://www.w3.org/1999/xlink" width="422.475664pt" height="258.585172pt" viewBox="0 0 422.475664 258.585172" xmlns="http://www.w3.org/2000/svg" version="1.1">
 <metadata>
  <rdf:RDF xmlns:dc="http://purl.org/dc/elements/1.1/" xmlns:cc="http://creativecommons.org/ns#" xmlns:rdf="http://www.w3.org/1999/02/22-rdf-syntax-ns#">
   <cc:Work>
    <dc:type rdf:resource="http://purl.org/dc/dcmitype/StillImage"/>
    <dc:date>2026-07-21T23:01:59.186030</dc:date>
    <dc:format>image/svg+xml</dc:format>
    <dc:creator>
     <cc:Agent>
      <dc:title>Matplotlib v3.11.1, https://matplotlib.org/</dc:title>
     </cc:Agent>
    </dc:creator>
   </cc:Work>
  </rdf:RDF>
 </metadata>
 <defs>
  <style type="text/css">*{stroke-linejoin: round; stroke-linecap: butt}</style>
 </defs>
 <g id="figure_1">
  <g id="patch_1">
   <path d="M 0 258.585172 
L 422.475664 258.585172 
L 422.475664 0 
L 0 0 
z
" style="fill: #fcfcfb"/>
  </g>
  <g id="axes_1">
   <g id="patch_2">
    <path d="M 52.930859 220.762359 
L 387.730859 220.762359 
L 387.730859 21.178359 
L 52.930859 21.178359 
z
" style="fill: #fcfcfb"/>
   </g>
   <g id="matplotlib.axis_1">
    <g id="xtick_1">
     <g id="line2d_1">
      <defs>
       <path id="m67e8f35ef1" d="M 0 0 
L 0 3.5 
" style="stroke: #898781; stroke-width: 0.8"/>
      </defs>
      <g>
       <use xlink:href="#m67e8f35ef1" x="122.540682" y="220.762359" style="fill: #898781; stroke: #898781; stroke-width: 0.8"/>
      </g>
     </g>
     <g id="text_1">
      <!-- $\mathdefault{10^{1}}$ -->
      <g style="fill: #0b0b0b" transform="translate(114.620682 236.132359)">
       <text>
        <tspan x="0" y="-0.68925" style="font-size: 9px; font-family: 'DejaVu Sans'; fill: #0b0b0b">1</tspan>
        <tspan x="5.726074" y="-0.68925" style="font-size: 9px; font-family: 'DejaVu Sans'; fill: #0b0b0b">0</tspan>
        <tspan x="11.538281" y="-4.40625" style="font-size: 6.3px; font-family: 'DejaVu Sans'; fill: #0b0b0b">1</tspan>
       </text>
      </g>
     </g>
    </g>
    <g id="xtick_2">
     <g id="line2d_2">
      <g>
       <use xlink:href="#m67e8f35ef1" x="228.398686" y="220.762359" style="fill: #898781; stroke: #898781; stroke-width: 0.8"/>
      </g>
     </g>
     <g id="text_2">
      <!-- $\mathdefault{10^{2}}$ -->
      <g style="fill: #0b0b0b" transform="translate(220.478686 236.222359)">
       <text>
        <tspan x="0" y="-0.60175" style="font-size: 9px; font-family: 'DejaVu Sans'; fill: #0b0b0b">1</tspan>
        <tspan x="5.726074" y="-0.60175" style="font-size: 9px; font-family: 'DejaVu Sans'; fill: #0b0b0b">0</tspan>
        <tspan x="11.538281" y="-4.31875" style="font-size: 6.3px; font-family: 'DejaVu Sans'; fill: #0b0b0b">2</tspan>
       </text>
      </g>
     </g>
    </g>
    <g id="xtick_3">
     <g id="line2d_3">
      <g>
       <use xlink:href="#m67e8f35ef1" x="334.256691" y="220.762359" style="fill: #898781; stroke: #898781; stroke-width: 0.8"/>
      </g>
     </g>
     <g id="text_3">
      <!-- $\mathdefault{10^{3}}$ -->
      <g style="fill: #0b0b0b" transform="translate(326.336691 236.222359)">
       <text>
        <tspan x="0" y="-0.60175" style="font-size: 9px; font-family: 'DejaVu Sans'; fill: #0b0b0b">1</tspan>
        <tspan x="5.726074" y="-0.60175" style="font-size: 9px; font-family: 'DejaVu Sans'; fill: #0b0b0b">0</tspan>
        <tspan x="11.538281" y="-4.31875" style="font-size: 6.3px; font-family: 'DejaVu Sans'; fill: #0b0b0b">3</tspan>
       </text>
      </g>
     </g>
    </g>
    <g id="xtick_4">
     <g id="line2d_4">
      <defs>
       <path id="m86d7c8076f" d="M 0 0 
L 0 2 
" style="stroke: #898781; stroke-width: 0.6"/>
      </defs>
      <g>
       <use xlink:href="#m86d7c8076f" x="67.189782" y="220.762359" style="fill: #898781; stroke: #898781; stroke-width: 0.6"/>
      </g>
     </g>
    </g>
    <g id="xtick_5">
     <g id="line2d_5">
      <g>
       <use xlink:href="#m86d7c8076f" x="80.415547" y="220.762359" style="fill: #898781; stroke: #898781; stroke-width: 0.6"/>
      </g>
     </g>
    </g>
    <g id="xtick_6">
     <g id="line2d_6">
      <g>
       <use xlink:href="#m86d7c8076f" x="90.674247" y="220.762359" style="fill: #898781; stroke: #898781; stroke-width: 0.6"/>
      </g>
     </g>
    </g>
    <g id="xtick_7">
     <g id="line2d_7">
      <g>
       <use xlink:href="#m86d7c8076f" x="99.056216" y="220.762359" style="fill: #898781; stroke: #898781; stroke-width: 0.6"/>
      </g>
     </g>
    </g>
    <g id="xtick_8">
     <g id="line2d_8">
      <g>
       <use xlink:href="#m86d7c8076f" x="106.14307" y="220.762359" style="fill: #898781; stroke: #898781; stroke-width: 0.6"/>
      </g>
     </g>
    </g>
    <g id="xtick_9">
     <g id="line2d_9">
      <g>
       <use xlink:href="#m86d7c8076f" x="112.281982" y="220.762359" style="fill: #898781; stroke: #898781; stroke-width: 0.6"/>
      </g>
     </g>
    </g>
    <g id="xtick_10">
     <g id="line2d_10">
      <g>
       <use xlink:href="#m86d7c8076f" x="117.696885" y="220.762359" style="fill: #898781; stroke: #898781; stroke-width: 0.6"/>
      </g>
     </g>
    </g>
    <g id="xtick_11">
     <g id="line2d_11">
      <g>
       <use xlink:href="#m86d7c8076f" x="154.407117" y="220.762359" style="fill: #898781; stroke: #898781; stroke-width: 0.6"/>
      </g>
     </g>
    </g>
    <g id="xtick_12">
     <g id="line2d_12">
      <g>
       <use xlink:href="#m86d7c8076f" x="173.047786" y="220.762359" style="fill: #898781; stroke: #898781; stroke-width: 0.6"/>
      </g>
     </g>
    </g>
    <g id="xtick_13">
     <g id="line2d_13">
      <g>
       <use xlink:href="#m86d7c8076f" x="186.273551" y="220.762359" style="fill: #898781; stroke: #898781; stroke-width: 0.6"/>
      </g>
     </g>
    </g>
    <g id="xtick_14">
     <g id="line2d_14">
      <g>
       <use xlink:href="#m86d7c8076f" x="196.532252" y="220.762359" style="fill: #898781; stroke: #898781; stroke-width: 0.6"/>
      </g>
     </g>
    </g>
    <g id="xtick_15">
     <g id="line2d_15">
      <g>
       <use xlink:href="#m86d7c8076f" x="204.914221" y="220.762359" style="fill: #898781; stroke: #898781; stroke-width: 0.6"/>
      </g>
     </g>
    </g>
    <g id="xtick_16">
     <g id="line2d_16">
      <g>
       <use xlink:href="#m86d7c8076f" x="212.001074" y="220.762359" style="fill: #898781; stroke: #898781; stroke-width: 0.6"/>
      </g>
     </g>
    </g>
    <g id="xtick_17">
     <g id="line2d_17">
      <g>
       <use xlink:href="#m86d7c8076f" x="218.139986" y="220.762359" style="fill: #898781; stroke: #898781; stroke-width: 0.6"/>
      </g>
     </g>
    </g>
    <g id="xtick_18">
     <g id="line2d_18">
      <g>
       <use xlink:href="#m86d7c8076f" x="223.55489" y="220.762359" style="fill: #898781; stroke: #898781; stroke-width: 0.6"/>
      </g>
     </g>
    </g>
    <g id="xtick_19">
     <g id="line2d_19">
      <g>
       <use xlink:href="#m86d7c8076f" x="260.265121" y="220.762359" style="fill: #898781; stroke: #898781; stroke-width: 0.6"/>
      </g>
     </g>
    </g>
    <g id="xtick_20">
     <g id="line2d_20">
      <g>
       <use xlink:href="#m86d7c8076f" x="278.90579" y="220.762359" style="fill: #898781; stroke: #898781; stroke-width: 0.6"/>
      </g>
     </g>
    </g>
    <g id="xtick_21">
     <g id="line2d_21">
      <g>
       <use xlink:href="#m86d7c8076f" x="292.131556" y="220.762359" style="fill: #898781; stroke: #898781; stroke-width: 0.6"/>
      </g>
     </g>
    </g>
    <g id="xtick_22">
     <g id="line2d_22">
      <g>
       <use xlink:href="#m86d7c8076f" x="302.390256" y="220.762359" style="fill: #898781; stroke: #898781; stroke-width: 0.6"/>
      </g>
     </g>
    </g>
    <g id="xtick_23">
     <g id="line2d_23">
      <g>
       <use xlink:href="#m86d7c8076f" x="310.772225" y="220.762359" style="fill: #898781; stroke: #898781; stroke-width: 0.6"/>
      </g>
     </g>
    </g>
    <g id="xtick_24">
     <g id="line2d_24">
      <g>
       <use xlink:href="#m86d7c8076f" x="317.859078" y="220.762359" style="fill: #898781; stroke: #898781; stroke-width: 0.6"/>
      </g>
     </g>
    </g>
    <g id="xtick_25">
     <g id="line2d_25">
      <g>
       <use xlink:href="#m86d7c8076f" x="323.99799" y="220.762359" style="fill: #898781; stroke: #898781; stroke-width: 0.6"/>
      </g>
     </g>
    </g>
    <g id="xtick_26">
     <g id="line2d_26">
      <g>
       <use xlink:href="#m86d7c8076f" x="329.412894" y="220.762359" style="fill: #898781; stroke: #898781; stroke-width: 0.6"/>
      </g>
     </g>
    </g>
    <g id="xtick_27">
     <g id="line2d_27">
      <g>
       <use xlink:href="#m86d7c8076f" x="366.123125" y="220.762359" style="fill: #898781; stroke: #898781; stroke-width: 0.6"/>
      </g>
     </g>
    </g>
    <g id="xtick_28">
     <g id="line2d_28">
      <g>
       <use xlink:href="#m86d7c8076f" x="384.763795" y="220.762359" style="fill: #898781; stroke: #898781; stroke-width: 0.6"/>
      </g>
     </g>
    </g>
    <g id="text_4">
     <text style="font-size: 9px; font-family: 'DejaVu Sans'; text-anchor: middle; fill: #0b0b0b" x="220.330859" y="249.223062" transform="rotate(-0 220.330859 249.223062)">Transmissions per message  (log scale)</text>
    </g>
   </g>
   <g id="matplotlib.axis_2">
    <g id="ytick_1">
     <g id="line2d_29">
      <path d="M 52.930859 210.783159 
L 387.730859 210.783159 
" clip-path="url(#pa0405b9725)" style="fill: none; stroke: #e1e0d9; stroke-width: 0.6; stroke-linecap: square"/>
     </g>
     <g id="line2d_30">
      <defs>
       <path id="m4ddb4e27fa" d="M 0 0 
L -3.5 0 
" style="stroke: #898781; stroke-width: 0.8"/>
      </defs>
      <g>
       <use xlink:href="#m4ddb4e27fa" x="52.930859" y="210.783159" style="fill: #898781; stroke: #898781; stroke-width: 0.8"/>
      </g>
     </g>
     <g id="text_5">
      <text style="font-size: 9px; font-family: 'DejaVu Sans'; text-anchor: end; fill: #0b0b0b" x="45.930859" y="214.202105" transform="rotate(-0 45.930859 214.202105)">0%</text>
     </g>
    </g>
    <g id="ytick_2">
     <g id="line2d_31">
      <path d="M 52.930859 177.519159 
L 387.730859 177.519159 
" clip-path="url(#pa0405b9725)" style="fill: none; stroke: #e1e0d9; stroke-width: 0.6; stroke-linecap: square"/>
     </g>
     <g id="line2d_32">
      <g>
       <use xlink:href="#m4ddb4e27fa" x="52.930859" y="177.519159" style="fill: #898781; stroke: #898781; stroke-width: 0.8"/>
      </g>
     </g>
     <g id="text_6">
      <text style="font-size: 9px; font-family: 'DejaVu Sans'; text-anchor: end; fill: #0b0b0b" x="45.930859" y="180.938105" transform="rotate(-0 45.930859 180.938105)">20%</text>
     </g>
    </g>
    <g id="ytick_3">
     <g id="line2d_33">
      <path d="M 52.930859 144.255159 
L 387.730859 144.255159 
" clip-path="url(#pa0405b9725)" style="fill: none; stroke: #e1e0d9; stroke-width: 0.6; stroke-linecap: square"/>
     </g>
     <g id="line2d_34">
      <g>
       <use xlink:href="#m4ddb4e27fa" x="52.930859" y="144.255159" style="fill: #898781; stroke: #898781; stroke-width: 0.8"/>
      </g>
     </g>
     <g id="text_7">
      <text style="font-size: 9px; font-family: 'DejaVu Sans'; text-anchor: end; fill: #0b0b0b" x="45.930859" y="147.674105" transform="rotate(-0 45.930859 147.674105)">40%</text>
     </g>
    </g>
    <g id="ytick_4">
     <g id="line2d_35">
      <path d="M 52.930859 110.991159 
L 387.730859 110.991159 
" clip-path="url(#pa0405b9725)" style="fill: none; stroke: #e1e0d9; stroke-width: 0.6; stroke-linecap: square"/>
     </g>
     <g id="line2d_36">
      <g>
       <use xlink:href="#m4ddb4e27fa" x="52.930859" y="110.991159" style="fill: #898781; stroke: #898781; stroke-width: 0.8"/>
      </g>
     </g>
     <g id="text_8">
      <text style="font-size: 9px; font-family: 'DejaVu Sans'; text-anchor: end; fill: #0b0b0b" x="45.930859" y="114.410105" transform="rotate(-0 45.930859 114.410105)">60%</text>
     </g>
    </g>
    <g id="ytick_5">
     <g id="line2d_37">
      <path d="M 52.930859 77.727159 
L 387.730859 77.727159 
" clip-path="url(#pa0405b9725)" style="fill: none; stroke: #e1e0d9; stroke-width: 0.6; stroke-linecap: square"/>
     </g>
     <g id="line2d_38">
      <g>
       <use xlink:href="#m4ddb4e27fa" x="52.930859" y="77.727159" style="fill: #898781; stroke: #898781; stroke-width: 0.8"/>
      </g>
     </g>
     <g id="text_9">
      <text style="font-size: 9px; font-family: 'DejaVu Sans'; text-anchor: end; fill: #0b0b0b" x="45.930859" y="81.146105" transform="rotate(-0 45.930859 81.146105)">80%</text>
     </g>
    </g>
    <g id="ytick_6">
     <g id="line2d_39">
      <path d="M 52.930859 44.463159 
L 387.730859 44.463159 
" clip-path="url(#pa0405b9725)" style="fill: none; stroke: #e1e0d9; stroke-width: 0.6; stroke-linecap: square"/>
     </g>
     <g id="line2d_40">
      <g>
       <use xlink:href="#m4ddb4e27fa" x="52.930859" y="44.463159" style="fill: #898781; stroke: #898781; stroke-width: 0.8"/>
      </g>
     </g>
     <g id="text_10">
      <text style="font-size: 9px; font-family: 'DejaVu Sans'; text-anchor: end; fill: #0b0b0b" x="45.930859" y="47.882105" transform="rotate(-0 45.930859 47.882105)">100%</text>
     </g>
    </g>
    <g id="text_11">
     <text style="font-size: 9px; font-family: 'DejaVu Sans'; text-anchor: middle; fill: #0b0b0b" x="14.038594" y="120.970359" transform="rotate(-90 14.038594 120.970359)">Delivery rate</text>
    </g>
   </g>
   <g id="patch_3">
    <path d="M 52.930859 220.762359 
L 52.930859 21.178359 
" style="fill: none; stroke: #c3c2b7; stroke-width: 0.8; stroke-linejoin: miter; stroke-linecap: square"/>
   </g>
   <g id="patch_4">
    <path d="M 52.930859 220.762359 
L 387.730859 220.762359 
" style="fill: none; stroke: #c3c2b7; stroke-width: 0.8; stroke-linejoin: miter; stroke-linecap: square"/>
   </g>
   <g id="PathCollection_1">
    <defs>
     <path id="m54858ca55b" d="M 0 4.1833 
C 1.109424 4.1833 2.173559 3.742521 2.95804 2.95804 
C 3.742521 2.173559 4.1833 1.109424 4.1833 0 
C 4.1833 -1.109424 3.742521 -2.173559 2.95804 -2.95804 
C 2.173559 -3.742521 1.109424 -4.1833 0 -4.1833 
C -1.109424 -4.1833 -2.173559 -3.742521 -2.95804 -2.95804 
C -3.742521 -2.173559 -4.1833 -1.109424 -4.1833 0 
C -4.1833 1.109424 -3.742521 2.173559 -2.95804 2.95804 
C -2.173559 3.742521 -1.109424 4.1833 0 4.1833 
z
" style="stroke: #fcfcfb; stroke-width: 1.4"/>
    </defs>
    <g clip-path="url(#pa0405b9725)">
     <use xlink:href="#m54858ca55b" x="65.66607" y="203.781087" style="fill: #e87ba4; stroke: #fcfcfb; stroke-width: 1.4"/>
    </g>
   </g>
   <g id="text_12">
    <text style="font-size: 8px; font-family: 'DejaVu Sans'; text-anchor: end; fill: #0b0b0b" x="56.66607" y="204.781087" transform="rotate(-0 56.66607 204.781087)">Random</text>
   </g>
   <g id="PathCollection_2">
    <defs>
     <path id="m34d062d683" d="M 0 4.1833 
C 1.109424 4.1833 2.173559 3.742521 2.95804 2.95804 
C 3.742521 2.173559 4.1833 1.109424 4.1833 0 
C 4.1833 -1.109424 3.742521 -2.173559 2.95804 -2.95804 
C 2.173559 -3.742521 1.109424 -4.1833 0 -4.1833 
C -1.109424 -4.1833 -2.173559 -3.742521 -2.95804 -2.95804 
C -3.742521 -2.173559 -4.1833 -1.109424 -4.1833 0 
C -4.1833 1.109424 -3.742521 2.173559 -2.95804 2.95804 
C -2.173559 3.742521 -1.109424 4.1833 0 4.1833 
z
" style="stroke: #fcfcfb; stroke-width: 1.4"/>
    </defs>
    <g clip-path="url(#pa0405b9725)">
     <use xlink:href="#m34d062d683" x="84.404849" y="198.009783" style="fill: #2a78d6; stroke: #fcfcfb; stroke-width: 1.4"/>
    </g>
   </g>
   <g id="text_13">
    <text style="font-size: 8px; font-family: 'DejaVu Sans'; text-anchor: start; fill: #0b0b0b" x="91.404849" y="202.009783" transform="rotate(-0 91.404849 202.009783)">UCB1 (shipped)</text>
   </g>
   <g id="PathCollection_3">
    <defs>
     <path id="m33d3af666d" d="M 0 4.1833 
C 1.109424 4.1833 2.173559 3.742521 2.95804 2.95804 
C 3.742521 2.173559 4.1833 1.109424 4.1833 0 
C 4.1833 -1.109424 3.742521 -2.173559 2.95804 -2.95804 
C 2.173559 -3.742521 1.109424 -4.1833 0 -4.1833 
C -1.109424 -4.1833 -2.173559 -3.742521 -2.95804 -2.95804 
C -3.742521 -2.173559 -4.1833 -1.109424 -4.1833 0 
C -4.1833 1.109424 -3.742521 2.173559 -2.95804 2.95804 
C -2.173559 3.742521 -1.109424 4.1833 0 4.1833 
z
" style="stroke: #fcfcfb; stroke-width: 1.4"/>
    </defs>
    <g clip-path="url(#pa0405b9725)">
     <use xlink:href="#m33d3af666d" x="97.016372" y="192.338271" style="fill: #eda100; stroke: #fcfcfb; stroke-width: 1.4"/>
    </g>
   </g>
   <g id="text_14">
    <text style="font-size: 8px; font-family: 'DejaVu Sans'; text-anchor: end; fill: #0b0b0b" x="95.016372" y="179.338271" transform="rotate(-0 95.016372 179.338271)">Heuristic</text>
   </g>
   <g id="PathCollection_4">
    <defs>
     <path id="mfb8fce693e" d="M 0 4.1833 
C 1.109424 4.1833 2.173559 3.742521 2.95804 2.95804 
C 3.742521 2.173559 4.1833 1.109424 4.1833 0 
C 4.1833 -1.109424 3.742521 -2.173559 2.95804 -2.95804 
C 2.173559 -3.742521 1.109424 -4.1833 0 -4.1833 
C -1.109424 -4.1833 -2.173559 -3.742521 -2.95804 -2.95804 
C -3.742521 -2.173559 -4.1833 -1.109424 -4.1833 0 
C -4.1833 1.109424 -3.742521 2.173559 -2.95804 2.95804 
C -2.173559 3.742521 -1.109424 4.1833 0 4.1833 
z
" style="stroke: #fcfcfb; stroke-width: 1.4"/>
    </defs>
    <g clip-path="url(#pa0405b9725)">
     <use xlink:href="#mfb8fce693e" x="103.236213" y="188.720811" style="fill: #1baf7a; stroke: #fcfcfb; stroke-width: 1.4"/>
    </g>
   </g>
   <g id="text_15">
    <text style="font-size: 8px; font-family: 'DejaVu Sans'; text-anchor: start; fill: #0b0b0b" x="112.236213" y="186.720811" transform="rotate(-0 112.236213 186.720811)">Agnostic ceiling</text>
   </g>
   <g id="PathCollection_5">
    <defs>
     <path id="m1c065e2a20" d="M 0 4.1833 
C 1.109424 4.1833 2.173559 3.742521 2.95804 2.95804 
C 3.742521 2.173559 4.1833 1.109424 4.1833 0 
C 4.1833 -1.109424 3.742521 -2.173559 2.95804 -2.95804 
C 2.173559 -3.742521 1.109424 -4.1833 0 -4.1833 
C -1.109424 -4.1833 -2.173559 -3.742521 -2.95804 -2.95804 
C -3.742521 -2.173559 -4.1833 -1.109424 -4.1833 0 
C -4.1833 1.109424 -3.742521 2.173559 -2.95804 2.95804 
C -2.173559 3.742521 -1.109424 4.1833 0 4.1833 
z
" style="stroke: #fcfcfb; stroke-width: 1.4"/>
    </defs>
    <g clip-path="url(#pa0405b9725)">
     <use xlink:href="#m1c065e2a20" x="68.700212" y="203.772771" style="fill: #eb6834; stroke: #fcfcfb; stroke-width: 1.4"/>
    </g>
   </g>
   <g id="text_16">
    <text style="font-size: 8px; font-family: 'DejaVu Sans'; text-anchor: end; fill: #0b0b0b" x="62.700212" y="192.772771" transform="rotate(-0 62.700212 192.772771)">Q-routing</text>
   </g>
   <g id="PathCollection_6">
    <defs>
     <path id="m71cfe0abe9" d="M 0 4.1833 
C 1.109424 4.1833 2.173559 3.742521 2.95804 2.95804 
C 3.742521 2.173559 4.1833 1.109424 4.1833 0 
C 4.1833 -1.109424 3.742521 -2.173559 2.95804 -2.95804 
C 2.173559 -3.742521 1.109424 -4.1833 0 -4.1833 
C -1.109424 -4.1833 -2.173559 -3.742521 -2.95804 -2.95804 
C -3.742521 -2.173559 -4.1833 -1.109424 -4.1833 0 
C -4.1833 1.109424 -3.742521 2.173559 -2.95804 2.95804 
C -2.173559 3.742521 -1.109424 4.1833 0 4.1833 
z
" style="stroke: #fcfcfb; stroke-width: 1.4"/>
    </defs>
    <g clip-path="url(#pa0405b9725)">
     <use xlink:href="#m71cfe0abe9" x="72.247775" y="81.968319" style="fill: #4a3aa7; stroke: #fcfcfb; stroke-width: 1.4"/>
    </g>
   </g>
   <g id="text_17">
    <text style="font-size: 8px; font-family: 'DejaVu Sans'; text-anchor: middle; fill: #0b0b0b" x="72.247775" y="69.968319" transform="rotate(-0 72.247775 69.968319)">Oracle</text>
   </g>
   <g id="PathCollection_7">
    <defs>
     <path id="m1f8cb67e2d" d="M 0 4.1833 
C 1.109424 4.1833 2.173559 3.742521 2.95804 2.95804 
C 3.742521 2.173559 4.1833 1.109424 4.1833 0 
C 4.1833 -1.109424 3.742521 -2.173559 2.95804 -2.95804 
C 2.173559 -3.742521 1.109424 -4.1833 0 -4.1833 
C -1.109424 -4.1833 -2.173559 -3.742521 -2.95804 -2.95804 
C -3.742521 -2.173559 -4.1833 -1.109424 -4.1833 0 
C -4.1833 1.109424 -3.742521 2.173559 -2.95804 2.95804 
C -2.173559 3.742521 -1.109424 4.1833 0 4.1833 
z
" style="stroke: #fcfcfb; stroke-width: 1.4"/>
    </defs>
    <g clip-path="url(#pa0405b9725)">
     <use xlink:href="#m1f8cb67e2d" x="351.498341" y="44.496423" style="fill: #e34948; stroke: #fcfcfb; stroke-width: 1.4"/>
    </g>
   </g>
   <g id="text_18">
    <text style="font-size: 8px; font-family: 'DejaVu Sans'; text-anchor: middle; fill: #0b0b0b" x="351.498341" y="32.496423" transform="rotate(-0 351.498341 32.496423)">Flooding</text>
   </g>
   <g id="text_19">
    <text style="font-weight: 700; font-size: 10.5px; font-family: 'DejaVu Sans'; text-anchor: middle; fill: #0b0b0b" x="220.330859" y="15.178359" transform="rotate(-0 220.330859 15.178359)">Flooding's delivery costs ~250× the transmissions  (n=50, p=0.2)</text>
   </g>
  </g>
 </g>
 <defs>
  <clipPath id="pa0405b9725">
   <rect x="52.930859" y="21.178359" width="334.8" height="199.584"/>
  </clipPath>
 </defs>
</svg>
